<svg data-name="Lager 1" xmlns="http://www.w3.org/2000/svg" viewBox="0 0 257.39 90.45"><path class="logo-letter" d="M257.39 90.09h-26.23V.16h26.2v12.73H244v23.47h12.83v13H244v27.73h13.42v13zm-104.63.07H126.5V.26h26.25V13h-13.44v23.47h12.85v12.94h-12.87v27.72h13.47v13zm-31-37.83c-.74-4.45-2.64-8.13-7.45-9.45a.4.4 0 0 1-.09-.18.51.51 0 0 1 .13-.19c4.74-2.42 6.91-6.61 7.4-11.61.44-4.41.38-8.94.38-13.41a25.58 25.58 0 0 0-1.53-9.41 11.36 11.36 0 0 0-8.34-7.54 20.34 20.34 0 0 0-4.39-.5H89.11V90a3.91 3.91 0 0 0 .53.08c6.43 0 13 .12 19.43 0 5.15-.09 9.27-2.13 11.27-7.19A23.44 23.44 0 0 0 122 75.7c.24-6 .24-12 .24-18a33.37 33.37 0 0 0-.48-5.37zM102.16 13a33.86 33.86 0 0 1 3.59 0 3 3 0 0 1 2.63 2.32 13.89 13.89 0 0 1 .6 3.64c0 4.12-.16 8.24-.3 12.36v.4a6.11 6.11 0 0 1-.43 1.73 3.69 3.69 0 0 1-4 2.91h-2.08V13zm6.89 53.56a34.68 34.68 0 0 1-.38 5.85c-.51 4-2.35 5.18-6.51 4.45V49.52c3.81-.66 5.69.39 6.16 4.12.54 4.26.6 8.59.73 12.89zM32.27 50.83c-.89-3.82-3-6.75-7-7.75a1.12 1.12 0 0 1-.27-.33c4.47-2.18 6.79-6 7.47-10.68a63.63 63.63 0 0 0-.14-20.66C30.91 3.73 26.46.22 18.68.16H0v90c7.17 0 14.25.22 21.31-.07 5.11-.2 8.59-3.12 10.31-8a27.12 27.12 0 0 0 1.41-9c0-5.36.1-10.68 0-16a31.29 31.29 0 0 0-.76-6.26zM19.65 71.71a4.53 4.53 0 0 1 0 .48c-.57 4.17-2.4 5.5-6.71 4.75V49.67c2-.57 3.57-.39 4.64.58a4.84 4.84 0 0 1 1.4 2.62 38.17 38.17 0 0 1 .89 7.58c.06 3.75-.14 7.55-.22 11.26zm-.24-39.43a8.57 8.57 0 0 1-.6 1.94 3.43 3.43 0 0 1-3.47 2.26h-2.4V12.91a17.29 17.29 0 0 1 1.93 0 17.28 17.28 0 0 1 1.86.25 4.36 4.36 0 0 1 2.27 1.9 6.14 6.14 0 0 1 .7 2.75 61.55 61.55 0 0 1-.29 14.47zM189.16 20.4A33.81 33.81 0 0 0 187.31 8a11.17 11.17 0 0 0-8.06-7.2 16 16 0 0 0-3.54-.57c-6.12-.1-12.23-.17-18.35-.17a4.32 4.32 0 0 0-.59.09v90h2.07c5.83-.07 11.68 0 17.5-.26 6.2-.33 10.08-3.55 11.53-9.55a47 47 0 0 0 1.29-10.55c.09-16.44 0-32.92 0-49.39zm-12.85-2.21v53.13a14.4 14.4 0 0 1-.47 3.43A2.77 2.77 0 0 1 173 77h-3.32V13h3.64a2.67 2.67 0 0 1 2.58 2.14 13.67 13.67 0 0 1 .44 3.07zm49.87 66.88v-27.6a45.85 45.85 0 0 0-.7-7.5 8 8 0 0 0-6.12-6.81 3.77 3.77 0 0 1-.62-.3.91.91 0 0 1 .18-.25c4.48-2.28 6.46-6.27 7.09-11a86.54 86.54 0 0 0 .14-18.08 17.29 17.29 0 0 0-2.52-8c-2.48-3.91-6.26-5.31-10.66-5.31h-18.29c-.32 0-.66.09-1 .09v89.8h12.77V49.39h3.08c2.39 0 3.36.77 3.73 3.16a42.08 42.08 0 0 1 .49 5.85c.11 9.15.14 18.31.25 27.47a17.84 17.84 0 0 0 .59 3.64 1.1 1.1 0 0 0 .82.64h11.27a50.07 50.07 0 0 1-.5-5.08zm-12.4-52.24c-.1 2.69-1.38 3.61-4.1 3.61h-3.11V12.86c1.62.08 3.16.1 4.69.26a2.65 2.65 0 0 1 2.28 2 6.72 6.72 0 0 1 .38 1.87c-.01 5.3.08 10.58-.14 15.84zM71 45.16v-24c0-4.37-.21-8.71-1.7-12.89-1.56-4.35-4.58-7.17-9.17-7.79A41.88 41.88 0 0 0 50.47.2C43.86.85 40.4 4 38.92 10.35a38.66 38.66 0 0 0-1 8.42c-.06 17.6 0 35.2 0 52.8a31.11 31.11 0 0 0 1.66 10.49 11.46 11.46 0 0 0 9.17 7.87 31.09 31.09 0 0 0 9.79.25c6.38-.79 10-3.82 11.38-10.08A44.74 44.74 0 0 0 71 71c.07-8.64 0-17.24 0-25.84zM58.19 71.74a15.86 15.86 0 0 1-.14 2 5.58 5.58 0 0 1-.4 1.55c-.56 1.28-1.65 1.81-3.46 1.77a3.13 3.13 0 0 1-3.4-2.84v-.16a17.32 17.32 0 0 1-.15-2.51V18.46a13.27 13.27 0 0 1 .36-3.08 4.11 4.11 0 0 1 .14-.44c.48-1.36 1.52-2 3.27-2 1.92 0 3.09.75 3.5 2.45a12.17 12.17 0 0 1 .32 2.85v53.5z"/></svg>